# xmcd
#
# Track frame offsets: 
#        150
#        13185
#        46575
#        60930
#        80999
#        119025
#        140700
#        156600
#        171675
#        183525
#        194175
#        202875
#        223725
#        237450
#        247950
#        265725
#        281100
#        289564
#
# Disc length: 4104 seconds
#
# Revision: 0
# Processed by: cddbd v1.5.2PL0 Copyright (c) Steve Scherf et al.
# Submitted via: ExactAudioCopy v0.99pb4
#
DISCID=26100612
DTITLE=Anne Horsch - Johannes Brahms - Organ Works
DYEAR=2008
DGENRE=Organ
TTITLE0=Choralvorspiel und Fuge über »O Traurigkeit, o Herzeleid« WoO 
TTITLE0=7. Poco Adagio
TTITLE1=Choralvorspiel und Fuge über »O Traurigkeit, o Herzeleid« WoO 
TTITLE1=7. Fuge. Adagio
TTITLE2=Praeludium und Fuge g-moll WoO 10. Allegro di molto
TTITLE3=Praeludium und Fuge g-moll WoO 10. Fuge. Tempo giusto
TTITLE4=Fuge as-moll  WoO 8. Langsam
TTITLE5=Mein Jesu, der du mich (zum Lustspiel ewiglich dir hast erwähl
TTITLE5=et) op.122,1
TTITLE6=Herzliebster Jesu (was hast du verbrochen) op.122,2
TTITLE7=O Welt, ich muß dich lassen,  op.122,3
TTITLE8=Herzlich tut mich erfreuen,  op.122,4
TTITLE9=Schmuecke dich, o liebe Seele, op.122,5
TTITLE10=O wie selig seid ihr doch, ihr Frommen, op.122,6
TTITLE11=O Gott, du frommer Gott, op.122,7
TTITLE12=Es ist ein Ros' entsprungen, op.122,8
TTITLE13=Herzlich tut mich verlangen, op.122,9
TTITLE14=Herzlich tut mich verlangen, op.122,10
TTITLE15=O Welt, ich muß dich lassen, op.122,11
TTITLE16=Praeludium und Fuge a-moll WoO 9. Allegro
TTITLE17=Praeludium und Fuge a-moll WoO 9. Fuge
EXTD=
EXTT0=
EXTT1=
EXTT2=
EXTT3=
EXTT4=
EXTT5=
EXTT6=
EXTT7=
EXTT8=
EXTT9=
EXTT10=
EXTT11=
EXTT12=
EXTT13=
EXTT14=
EXTT15=
EXTT16=
EXTT17=
PLAYORDER=
